<svg width="55" height="54" viewBox="0 0 55 54" fill="none" xmlns="http://www.w3.org/2000/svg">
<path d="M27.353 0.473412C12.8519 0.473412 0.603027 12.7222 0.603027 27.2234C0.603027 41.7246 12.8519 53.9734 27.353 53.9734C41.8542 53.9734 54.103 41.7246 54.103 27.2234C54.103 12.7222 41.8542 0.473412 27.353 0.473412ZM27.353 13.8484C31.9728 13.8484 35.378 17.251 35.378 21.8734C35.378 26.4958 31.9728 29.8984 27.353 29.8984C22.736 29.8984 19.328 26.4958 19.328 21.8734C19.328 17.251 22.736 13.8484 27.353 13.8484ZM13.6945 39.9885C16.094 36.4575 20.0958 34.1035 24.678 34.1035H30.028C34.613 34.1035 38.6121 36.4575 41.0116 39.9885C37.5929 43.6479 32.7432 45.9484 27.353 45.9484C21.9629 45.9484 17.1131 43.6479 13.6945 39.9885Z" fill="#C2C6CC"/>
</svg>
