<svg width="30" height="30" viewBox="0 0 30 30" fill="none" xmlns="http://www.w3.org/2000/svg">
<path d="M6.28766 22.1451C7.49183 21.2243 8.83766 20.4985 10.3252 19.9677C11.8127 19.4369 13.371 19.1711 15.0002 19.1701C16.6293 19.1692 18.1877 19.435 19.6752 19.9677C21.1627 20.5004 22.5085 21.2262 23.7127 22.1451C24.5391 21.1771 25.1827 20.0791 25.6436 18.8514C26.1045 17.6236 26.3344 16.3132 26.3335 14.9201C26.3335 11.7798 25.2299 9.10564 23.0227 6.89753C20.8156 4.68942 18.1414 3.58584 15.0002 3.58678C11.8589 3.58773 9.18475 4.69178 6.97758 6.89895C4.77041 9.10611 3.66683 11.7798 3.66683 14.9201C3.66683 16.3132 3.89728 17.6236 4.35816 18.8514C4.81905 20.0791 5.46222 21.1771 6.28766 22.1451ZM15.0002 16.3368C13.6071 16.3368 12.4322 15.8589 11.4755 14.9031C10.5188 13.9473 10.0409 12.7724 10.0418 11.3784C10.0428 9.98445 10.5211 8.80956 11.4769 7.85378C12.4327 6.898 13.6071 6.42011 15.0002 6.42011C16.3932 6.42011 17.5681 6.89848 18.5248 7.8552C19.4816 8.81192 19.9594 9.98634 19.9585 11.3784C19.9576 12.7706 19.4797 13.9454 18.5248 14.9031C17.57 15.8608 16.3951 16.3387 15.0002 16.3368ZM15.0002 29.0868C13.0404 29.0868 11.1988 28.7147 9.47517 27.9704C7.75155 27.2262 6.25225 26.2171 4.97725 24.943C3.70225 23.669 2.69311 22.1697 1.94983 20.4451C1.20655 18.7206 0.834442 16.8789 0.833498 14.9201C0.832553 12.9613 1.20466 11.1197 1.94983 9.39512C2.695 7.67056 3.70414 6.17125 4.97725 4.8972C6.25036 3.62314 7.74967 2.614 9.47517 1.86978C11.2007 1.12556 13.0423 0.753448 15.0002 0.753448C16.958 0.753448 18.7997 1.12556 20.5252 1.86978C22.2507 2.614 23.75 3.62314 25.0231 4.8972C26.2962 6.17125 27.3058 7.67056 28.0519 9.39512C28.798 11.1197 29.1697 12.9613 29.1668 14.9201C29.164 16.8789 28.7919 18.7206 28.0505 20.4451C27.3091 22.1697 26.3 23.669 25.0231 24.943C23.7462 26.2171 22.2469 27.2267 20.5252 27.9719C18.8034 28.717 16.9618 29.0887 15.0002 29.0868ZM15.0002 26.2534C16.2516 26.2534 17.4321 26.0707 18.5418 25.7052C19.6516 25.3397 20.6668 24.8141 21.5877 24.1284C20.6668 23.4437 19.6516 22.9186 18.5418 22.5531C17.4321 22.1876 16.2516 22.0044 15.0002 22.0034C13.7488 22.0025 12.5682 22.1857 11.4585 22.5531C10.3488 22.9205 9.3335 23.4456 8.41266 24.1284C9.3335 24.8132 10.3488 25.3388 11.4585 25.7052C12.5682 26.0716 13.7488 26.2544 15.0002 26.2534ZM15.0002 13.5034C15.6141 13.5034 16.1217 13.3028 16.5231 12.9014C16.9245 12.5 17.1252 11.9923 17.1252 11.3784C17.1252 10.7646 16.9245 10.2569 16.5231 9.85553C16.1217 9.45414 15.6141 9.25345 15.0002 9.25345C14.3863 9.25345 13.8786 9.45414 13.4772 9.85553C13.0759 10.2569 12.8752 10.7646 12.8752 11.3784C12.8752 11.9923 13.0759 12.5 13.4772 12.9014C13.8786 13.3028 14.3863 13.5034 15.0002 13.5034Z" fill="white"/>
</svg>
