<svg width="55" height="54" viewBox="0 0 55 54" fill="none" xmlns="http://www.w3.org/2000/svg">
<path d="M37.2604 48.7697C36.5586 48.7697 35.9708 48.5081 35.4969 47.985C35.023 47.4619 34.7852 46.8153 34.7835 46.0452V32.4225C34.7835 31.6505 35.0213 31.0039 35.4969 30.4826C35.9724 29.9613 36.5603 29.6998 37.2604 29.6979H49.6446C50.3464 29.6979 50.9351 29.9595 51.4106 30.4826C51.8862 31.0057 52.1232 31.6523 52.1215 32.4225V46.0452C52.1215 46.8171 51.8837 47.4646 51.4082 47.9878C50.9326 48.5109 50.3448 48.7715 49.6446 48.7697H37.2604ZM27.353 24.2489C26.6512 24.2489 26.0634 23.9873 25.5895 23.4642C25.1156 22.9411 24.8778 22.2945 24.8761 21.5243V7.90165C24.8761 7.1297 25.1139 6.48308 25.5895 5.96178C26.065 5.44049 26.6529 5.17893 27.353 5.17712H49.6446C50.3464 5.17712 50.9351 5.43867 51.4106 5.96178C51.8862 6.48489 52.1232 7.13152 52.1215 7.90165V21.5243C52.1215 22.2963 51.8837 22.9438 51.4082 23.4669C50.9326 23.99 50.3448 24.2507 49.6446 24.2489H27.353ZM5.06132 48.7697C4.35955 48.7697 3.77171 48.5081 3.29781 47.985C2.8239 47.4619 2.58612 46.8153 2.58447 46.0452V32.4225C2.58447 31.6505 2.82225 31.0039 3.29781 30.4826C3.77336 29.9613 4.3612 29.6998 5.06132 29.6979H27.353C28.0548 29.6979 28.6434 29.9595 29.119 30.4826C29.5945 31.0057 29.8315 31.6523 29.8298 32.4225V46.0452C29.8298 46.8171 29.5921 47.4646 29.1165 47.9878C28.6409 48.5109 28.0531 48.7715 27.353 48.7697H5.06132ZM5.06132 24.2489C4.35955 24.2489 3.77171 23.9873 3.29781 23.4642C2.8239 22.9411 2.58612 22.2945 2.58447 21.5243V7.90165C2.58447 7.1297 2.82225 6.48308 3.29781 5.96178C3.77336 5.44049 4.3612 5.17893 5.06132 5.17712H17.4456C18.1474 5.17712 18.736 5.43867 19.2116 5.96178C19.6871 6.48489 19.9241 7.13152 19.9224 7.90165V21.5243C19.9224 22.2963 19.6847 22.9438 19.2091 23.4669C18.7335 23.99 18.1457 24.2507 17.4456 24.2489H5.06132ZM29.8298 18.7998H47.1678V10.6262H29.8298V18.7998ZM7.53818 43.3206H24.8761V35.147H7.53818V43.3206ZM39.7372 43.3206H47.1678V35.147H39.7372V43.3206ZM7.53818 18.7998H14.9687V10.6262H7.53818V18.7998Z" fill="white"/>
</svg>
