<svg width="30" height="24" viewBox="0 0 30 24" fill="none" xmlns="http://www.w3.org/2000/svg">
<path d="M21 24C20.575 24 20.219 23.856 19.932 23.568C19.645 23.28 19.501 22.924 19.5 22.5V15C19.5 14.575 19.644 14.219 19.932 13.932C20.22 13.645 20.576 13.501 21 13.5H28.5C28.925 13.5 29.2815 13.644 29.5695 13.932C29.8575 14.22 30.001 14.576 30 15V22.5C30 22.925 29.856 23.2815 29.568 23.5695C29.28 23.8575 28.924 24.001 28.5 24H21ZM15 10.5C14.575 10.5 14.219 10.356 13.932 10.068C13.645 9.78 13.501 9.424 13.5 9V1.5C13.5 1.075 13.644 0.719 13.932 0.432C14.22 0.145 14.576 0.001 15 0H28.5C28.925 0 29.2815 0.144 29.5695 0.432C29.8575 0.72 30.001 1.076 30 1.5V9C30 9.425 29.856 9.7815 29.568 10.0695C29.28 10.3575 28.924 10.501 28.5 10.5H15ZM1.5 24C1.075 24 0.719 23.856 0.432 23.568C0.145 23.28 0.001 22.924 0 22.5V15C0 14.575 0.144 14.219 0.432 13.932C0.72 13.645 1.076 13.501 1.5 13.5H15C15.425 13.5 15.7815 13.644 16.0695 13.932C16.3575 14.22 16.501 14.576 16.5 15V22.5C16.5 22.925 16.356 23.2815 16.068 23.5695C15.78 23.8575 15.424 24.001 15 24H1.5ZM1.5 10.5C1.075 10.5 0.719 10.356 0.432 10.068C0.145 9.78 0.001 9.424 0 9V1.5C0 1.075 0.144 0.719 0.432 0.432C0.72 0.145 1.076 0.001 1.5 0H9C9.425 0 9.7815 0.144 10.0695 0.432C10.3575 0.72 10.501 1.076 10.5 1.5V9C10.5 9.425 10.356 9.7815 10.068 10.0695C9.78 10.3575 9.424 10.501 9 10.5H1.5ZM16.5 7.5H27V3H16.5V7.5ZM3 21H13.5V16.5H3V21ZM22.5 21H27V16.5H22.5V21ZM3 7.5H7.5V3H3V7.5Z" fill="white"/>
</svg>
