<svg width="24" height="30" viewBox="0 0 24 30" fill="none" xmlns="http://www.w3.org/2000/svg">
<path d="M14.8332 0.833344H3.49984C1.9415 0.833344 0.680671 2.10834 0.680671 3.66668L0.666504 26.3333C0.666504 27.8917 1.92734 29.1667 3.48567 29.1667H20.4998C22.0582 29.1667 23.3332 27.8917 23.3332 26.3333V9.33334L14.8332 0.833344ZM3.49984 3.66668H13.4165L20.4998 10.75V22.905L17.8932 20.2983C18.7906 18.9381 19.1906 17.3096 19.0254 15.6884C18.8602 14.0672 18.1399 12.5529 16.9865 11.4017C16.3327 10.7452 15.5555 10.2245 14.6997 9.8695C13.8439 9.51453 12.9263 9.33231 11.9998 9.33334C10.1248 9.33374 8.3265 10.0775 6.999 11.4017C6.34235 12.057 5.82139 12.8354 5.46594 13.6923C5.11049 14.5492 4.92753 15.4677 4.92753 16.3954C4.92753 17.3231 5.11049 18.2417 5.46594 19.0986C5.82139 19.9555 6.34235 20.7339 6.999 21.3892C8.15055 22.5428 9.66604 23.2621 11.2879 23.4248C12.9098 23.5875 14.5379 23.1836 15.8957 22.2817L19.9332 26.3333H3.49984V3.66668ZM14.989 19.3917C14.1957 20.185 13.1332 20.6383 11.9998 20.6383C10.8665 20.6383 9.804 20.1992 9.01067 19.3917C8.21734 18.5983 7.764 17.5358 7.764 16.4025C7.764 15.2692 8.20317 14.2067 9.01067 13.4133C9.804 12.6058 10.8665 12.1667 11.9998 12.1667C13.1332 12.1667 14.1957 12.6058 14.989 13.4133C15.7823 14.2067 16.2357 15.2692 16.2357 16.4025C16.2357 17.5358 15.7965 18.5983 14.989 19.3917Z" fill="white"/>
</svg>
