<svg width="30" height="30" viewBox="0 0 30 30" fill="none" xmlns="http://www.w3.org/2000/svg">
<path d="M14.9293 23.5C15.4252 23.5 15.8445 23.3286 16.1873 22.9857C16.5302 22.6429 16.7011 22.224 16.7002 21.7292C16.6992 21.2343 16.5283 20.8149 16.1873 20.4712C15.8464 20.1274 15.4271 19.9564 14.9293 19.9583C14.4316 19.9602 14.0127 20.1316 13.6727 20.4726C13.3327 20.8135 13.1613 21.2324 13.1585 21.7292C13.1557 22.2259 13.3271 22.6453 13.6727 22.9872C14.0184 23.329 14.4373 23.5 14.9293 23.5ZM13.6543 18.0458H16.2752C16.2752 17.2667 16.3639 16.6528 16.5415 16.2042C16.7191 15.7555 17.2206 15.1417 18.046 14.3625C18.6599 13.7486 19.1439 13.164 19.4981 12.6087C19.8522 12.0533 20.0293 11.3865 20.0293 10.6083C20.0293 9.2861 19.5453 8.27082 18.5772 7.56249C17.6092 6.85415 16.4641 6.49999 15.1418 6.49999C13.796 6.49999 12.7042 6.85415 11.8665 7.56249C11.0288 8.27082 10.4442 9.12082 10.1127 10.1125L12.4502 11.0333C12.5682 10.6083 12.8341 10.1479 13.2477 9.65207C13.6614 9.15624 14.2928 8.90832 15.1418 8.90832C15.8974 8.90832 16.4641 9.11515 16.8418 9.52882C17.2196 9.94249 17.4085 10.3968 17.4085 10.8917C17.4085 11.3639 17.2668 11.8068 16.9835 12.2205C16.7002 12.6342 16.346 13.0176 15.921 13.3708C14.8821 14.2917 14.2446 14.9882 14.0085 15.4604C13.7724 15.9326 13.6543 16.7944 13.6543 18.0458ZM15.0002 29.1667C13.0404 29.1667 11.1988 28.795 9.47517 28.0517C7.75155 27.3085 6.25225 26.2988 4.97725 25.0229C3.70225 23.747 2.69311 22.2477 1.94983 20.525C1.20655 18.8023 0.834442 16.9607 0.833498 15C0.832553 13.0393 1.20466 11.1977 1.94983 9.47499C2.695 7.75232 3.70414 6.25301 4.97725 4.97707C6.25036 3.70113 7.74967 2.69199 9.47517 1.94965C11.2007 1.20732 13.0423 0.835209 15.0002 0.83332C16.958 0.831431 18.7997 1.20354 20.5252 1.94965C22.2507 2.69576 23.75 3.7049 25.0231 4.97707C26.2962 6.24924 27.3058 7.74854 28.0519 9.47499C28.798 11.2014 29.1697 13.0431 29.1668 15C29.164 16.9569 28.7919 18.7985 28.0505 20.525C27.3091 22.2514 26.3 23.7507 25.0231 25.0229C23.7462 26.2951 22.2469 27.3047 20.5252 28.0517C18.8034 28.7988 16.9618 29.1704 15.0002 29.1667ZM15.0002 26.3333C18.1641 26.3333 20.8439 25.2354 23.0397 23.0396C25.2356 20.8437 26.3335 18.1639 26.3335 15C26.3335 11.8361 25.2356 9.15624 23.0397 6.9604C20.8439 4.76457 18.1641 3.66665 15.0002 3.66665C11.8363 3.66665 9.15641 4.76457 6.96058 6.9604C4.76475 9.15624 3.66683 11.8361 3.66683 15C3.66683 18.1639 4.76475 20.8437 6.96058 23.0396C9.15641 25.2354 11.8363 26.3333 15.0002 26.3333Z" fill="white"/>
</svg>
