<svg width="31" height="30" viewBox="0 0 31 30" fill="none" xmlns="http://www.w3.org/2000/svg">
<path d="M18.7623 26.9L27.1915 24.2792C27.0734 24.0667 26.9025 23.8839 26.6787 23.7309C26.4548 23.5779 26.2008 23.5009 25.9165 23.5H18.7623C18.1248 23.5 17.6172 23.4764 17.2394 23.4292C16.8616 23.3819 16.4721 23.2875 16.0707 23.1458L14.0519 22.4729C13.6741 22.3548 13.4026 22.1187 13.2373 21.7646C13.0721 21.4104 13.0484 21.0444 13.1665 20.6666C13.2846 20.2889 13.515 20.0112 13.8578 19.8336C14.2007 19.6561 14.5605 19.6268 14.9373 19.7458L16.4248 20.2416C16.8262 20.3597 17.281 20.4541 17.7891 20.525C18.2972 20.5958 18.9876 20.643 19.8603 20.6666H20.2498C20.2498 20.4069 20.1733 20.159 20.0203 19.9229C19.8673 19.6868 19.6841 19.5333 19.4707 19.4625L11.1832 16.4166H8.9165V24.2083L18.7623 26.9ZM18.0186 29.6625L8.9165 27.1125C8.72761 27.7264 8.3555 28.2222 7.80017 28.6C7.24484 28.9778 6.6725 29.1667 6.08317 29.1667H3.24984C2.47067 29.1667 1.80389 28.8895 1.2495 28.3351C0.695115 27.7807 0.417448 27.1134 0.416504 26.3333V16.4166C0.416504 15.6375 0.694171 14.9707 1.2495 14.4163C1.80484 13.8619 2.47162 13.5843 3.24984 13.5833H11.1832C11.3484 13.5833 11.5137 13.6013 11.679 13.6371C11.8443 13.673 11.9978 13.7141 12.1394 13.7604L20.4623 16.8417C21.2415 17.125 21.8733 17.6208 22.3578 18.3292C22.8423 19.0375 23.0841 19.8167 23.0832 20.6666H25.9165C27.0971 20.6666 28.1005 21.0562 28.9269 21.8354C29.7533 22.6146 30.1665 23.6417 30.1665 24.9167C30.1665 25.4361 30.0305 25.8436 29.7585 26.1392C29.4865 26.4348 29.0676 26.6766 28.5019 26.8646L19.6478 29.6271C19.388 29.7215 19.1165 29.7687 18.8332 29.7687C18.5498 29.7687 18.2783 29.7333 18.0186 29.6625ZM3.24984 26.3333H6.08317V16.4166H3.24984V26.3333ZM21.6665 15.2833C21.3123 15.2833 20.9643 15.2186 20.6224 15.0892C20.2805 14.9598 19.9674 14.7648 19.6832 14.5041L15.7873 10.6791C15.0554 9.97082 14.4358 9.18598 13.9287 8.32465C13.4215 7.46332 13.1674 6.52454 13.1665 5.50832C13.1665 4.20971 13.6213 3.10612 14.5308 2.19757C15.4403 1.28901 16.5438 0.834262 17.8415 0.833317C18.5971 0.833317 19.3054 0.992928 19.9665 1.31215C20.6276 1.63137 21.1943 2.06204 21.6665 2.60415C22.1387 2.06109 22.7054 1.62996 23.3665 1.31073C24.0276 0.991511 24.7359 0.832373 25.4915 0.833317C26.7901 0.833317 27.8942 1.28807 28.8037 2.19757C29.7132 3.10707 30.1674 4.21065 30.1665 5.50832C30.1665 6.52359 29.9186 7.46237 29.4228 8.32465C28.9269 9.18693 28.313 9.97176 27.5811 10.6791L23.6498 14.5041C23.3665 14.7639 23.0539 14.9589 22.712 15.0892C22.3701 15.2196 22.0216 15.2843 21.6665 15.2833ZM21.6665 12.45L25.5269 8.6604C25.9755 8.21179 26.3887 7.7339 26.7665 7.22673C27.1443 6.71957 27.3332 6.14676 27.3332 5.50832C27.3332 4.98887 27.1561 4.55207 26.8019 4.1979C26.4478 3.84373 26.0109 3.66665 25.4915 3.66665C25.1609 3.66665 24.8479 3.73182 24.5523 3.86215C24.2566 3.99248 24.0031 4.18704 23.7915 4.44582L22.7644 5.6854C22.4811 6.01596 22.1151 6.18123 21.6665 6.18123C21.2179 6.18123 20.8519 6.01596 20.5686 5.6854L19.5415 4.44582C19.329 4.18609 19.0749 3.99107 18.7793 3.86073C18.4837 3.7304 18.1711 3.66571 17.8415 3.66665C17.3221 3.66665 16.8853 3.84373 16.5311 4.1979C16.1769 4.55207 15.9998 4.98887 15.9998 5.50832C15.9998 6.14582 16.1887 6.71862 16.5665 7.22673C16.9443 7.73484 17.3575 8.21273 17.8061 8.6604L21.6665 12.45Z" fill="white"/>
</svg>
